<?xml version="1.0" encoding="UTF-8" standalone="no"?>
<!-- Generator: Adobe Illustrator 19.0.0, SVG Export Plug-In . SVG Version: 6.00 Build 0)  -->

<svg
   xmlns:dc="http://purl.org/dc/elements/1.1/"
   xmlns:cc="http://creativecommons.org/ns#"
   xmlns:rdf="http://www.w3.org/1999/02/22-rdf-syntax-ns#"
   xmlns:svg="http://www.w3.org/2000/svg"
   xmlns="http://www.w3.org/2000/svg"
   xmlns:sodipodi="http://sodipodi.sourceforge.net/DTD/sodipodi-0.dtd"
   xmlns:inkscape="http://www.inkscape.org/namespaces/inkscape"
   version="1.1"
   id="Layer_1"
   x="0px"
   y="0px"
   viewBox="0 0 511.997 511.997"
   style="enable-background:new 0 0 511.997 511.997;"
   xml:space="preserve"
   sodipodi:docname="work1.svg"
   inkscape:version="0.92.2 5c3e80d, 2017-08-06"><metadata
     id="metadata55"><rdf:RDF><cc:Work
         rdf:about=""><dc:format>image/svg+xml</dc:format><dc:type
           rdf:resource="http://purl.org/dc/dcmitype/StillImage" /></cc:Work></rdf:RDF></metadata><defs
     id="defs53" /><sodipodi:namedview
     pagecolor="#ffffff"
     bordercolor="#666666"
     borderopacity="1"
     objecttolerance="10"
     gridtolerance="10"
     guidetolerance="10"
     inkscape:pageopacity="0"
     inkscape:pageshadow="2"
     inkscape:window-width="1366"
     inkscape:window-height="741"
     id="namedview51"
     showgrid="false"
     inkscape:zoom="0.46094019"
     inkscape:cx="255.9985"
     inkscape:cy="255.9985"
     inkscape:window-x="0"
     inkscape:window-y="27"
     inkscape:window-maximized="1"
     inkscape:current-layer="Layer_1" /><circle
     style="fill:#ff5b62"
     cx="-255.99899"
     cy="255.99899"
     r="255.99899"
     id="circle2"
     transform="scale(-1,1)" /><path
     style="fill:#fed298"
     d="m 426.57699,166.503 -85.319,42.406 c 0,0 -62.95,-20.373 -72.748,-17.188 -0.952,0.309 -2.56,0.947 -4.669,1.833 l -0.008,0.005 c -19.555,8.236 -82.871,38.477 -82.871,38.477 l 18.047,-1.152 c -7.342,9.43 -17.567,21.773 -23.376,25.372 -9.781,6.056 13.512,23.292 33.071,10.712 19.563,-12.577 24.688,-27.948 24.688,-27.948 l 9.674,0.999 -67.847,62.304 -10.778,12.919 c -9.325,11.177 2.254,27.321 17.483,22.4 -0.243,0.184 0.619,-0.068 0.391,0.551 -0.871,2.345 -2.631,7.976 -1.044,10.723 5.576,9.666 13.973,17.104 31.76,3.557 -4.31,3.282 -6.951,11.006 -3.961,15.497 4.068,6.112 8.553,8.869 13.459,10.364 5.17,1.576 12.966,-3.365 17.27,-6.644 -4.307,3.279 -6.359,11.058 -3.488,15.638 3.533,5.637 14.757,13.921 21.873,8.498 l 22.358,-17.028 c 0,0 54.424,-52.699 71.24,-66.724 16.821,-14.031 39.681,-42.577 39.681,-42.577 l 100.524,-55.78 -65.415,-47.217 z"
     id="path4"
     inkscape:connector-curvature="0" /><path
     style="fill:#0f7986"
     d="m 511.06199,234.181 -73.591,49.184 -77.778,-102.116 93.615,-88.363 c 32.306,39.044 53.245,87.828 57.756,141.295 z"
     id="path6"
     inkscape:connector-curvature="0" /><path
     style="fill:#ffffff"
     d="m 361.76299,183.965 65.552,86.06 -12.566,9.574 -65.552,-86.063 z"
     id="path8"
     inkscape:connector-curvature="0" /><path
     style="fill:#f0ba7d"
     d="m 85.418986,166.503 85.319004,42.406 c 6.82,3.389 31.324,-12.666 51.484,-15.113 14.597,-1.771 32.232,3.89 31.182,4.435 l -45.703,21.126 c 0,0 -22.279,30.847 -32.061,36.898 -9.781,6.054 13.512,23.292 33.071,10.712 19.563,-12.577 24.688,-27.948 24.688,-27.948 l 40.436,4.168 77.958,68.891 c 10.791,9.537 7.491,14.514 0.234,23.816 -3.318,4.26 -15.513,2.825 -20.625,0.871 11.806,8.981 -5.217,32.111 -21.907,19.389 10.093,7.691 -4.383,34.807 -24.596,19.405 10.083,13.592 -10.468,23.478 -19.109,21.021 l -6.259,-1.779 1.598,-1.217 c 0.517,0 16.887,-16.787 17.878,-18.823 5.6,-11.494 -9.157,-27.059 -22.387,-15.93 l -11.387,8.743 6.597,-8.365 c 8.415,-11.027 1.938,-22.413 -6.122,-25.865 -5.907,-2.526 -12.021,0.28 -17.005,5.196 l -12.577,10.077 10.715,-12.52 c 0,0 10.277,-11.609 0.844,-21.976 -9.433,-10.364 -22.216,2.062 -22.216,2.062 l -15.046,12.439 12.95,-14.999 c 0,0 11.216,-11.791 3.667,-19.68 -10.486,-10.959 -23.46,-0.166 -33.703,10.628 -2.943,3.103 -5.975,7.869 -8.276,10.069 -11.305,-12.724 -18.912,-26.516 -18.912,-26.516 l -126.146004,-74.412 65.413,-47.217 z"
     id="path10"
     inkscape:connector-curvature="0" /><path
     style="fill:#fad24d"
     d="M 0.93498584,234.179 74.528986,283.366 152.30299,181.25 58.687986,92.886 c -32.308,39.041 -53.2420002,87.826 -57.75600016,141.293 z"
     id="path12"
     inkscape:connector-curvature="0" /><path
     style="fill:#ffffff"
     d="m 150.23899,183.965 -65.557004,86.06 12.569,9.574 65.549004,-86.063 z"
     id="path14"
     inkscape:connector-curvature="0" /><path
     style="fill:#ecf0f1"
     d="m 444.62899,256.189 c -2.573,0 -4.661,2.088 -4.661,4.661 0,2.573 2.085,4.661 4.661,4.661 2.573,0 4.661,-2.085 4.661,-4.661 0,-2.573 -2.085,-4.661 -4.661,-4.661 z m 13.865,-8.688 c -2.573,0 -4.661,2.085 -4.661,4.661 0,2.573 2.088,4.661 4.661,4.661 2.573,0 4.661,-2.088 4.661,-4.661 0,-2.573 -2.085,-4.661 -4.661,-4.661 z"
     id="path16"
     inkscape:connector-curvature="0" /><path
     style="fill:#ffffff"
     d="m 64.550986,258.717 c 2.573,0 4.661,2.088 4.661,4.661 0,2.573 -2.085,4.661 -4.661,4.661 -2.573,0 -4.661,-2.085 -4.661,-4.661 0,-2.573 2.085,-4.661 4.661,-4.661 z m -13.865,-8.687 c 2.573,0 4.661,2.085 4.661,4.661 0,2.573 -2.088,4.661 -4.661,4.661 -2.573,0 -4.661,-2.088 -4.661,-4.661 0,-2.573 2.085,-4.661 4.661,-4.661 z"
     id="path18"
     inkscape:connector-curvature="0" /><g
     id="g20"
     transform="matrix(-1,0,0,1,511.99799,0)" /><g
     id="g22"
     transform="matrix(-1,0,0,1,511.99799,0)" /><g
     id="g24"
     transform="matrix(-1,0,0,1,511.99799,0)" /><g
     id="g26"
     transform="matrix(-1,0,0,1,511.99799,0)" /><g
     id="g28"
     transform="matrix(-1,0,0,1,511.99799,0)" /><g
     id="g30"
     transform="matrix(-1,0,0,1,511.99799,0)" /><g
     id="g32"
     transform="matrix(-1,0,0,1,511.99799,0)" /><g
     id="g34"
     transform="matrix(-1,0,0,1,511.99799,0)" /><g
     id="g36"
     transform="matrix(-1,0,0,1,511.99799,0)" /><g
     id="g38"
     transform="matrix(-1,0,0,1,511.99799,0)" /><g
     id="g40"
     transform="matrix(-1,0,0,1,511.99799,0)" /><g
     id="g42"
     transform="matrix(-1,0,0,1,511.99799,0)" /><g
     id="g44"
     transform="matrix(-1,0,0,1,511.99799,0)" /><g
     id="g46"
     transform="matrix(-1,0,0,1,511.99799,0)" /><g
     id="g48"
     transform="matrix(-1,0,0,1,511.99799,0)" /></svg>